<svg id="Layer_1" data-name="Layer 1" xmlns="http://www.w3.org/2000/svg" viewBox="0 0 76.87 72.29"><defs><style>.cls-1{fill:none;stroke:#ccc;stroke-linecap:round;stroke-linejoin:round;}.cls-2{fill:#666;}</style></defs><title>logos</title><path class="cls-1" d="M33.16,71.4l.53.89,6.48-54.53a3.06,3.06,0,0,1,3.33-2.68h.07a6.05,6.05,0,1,0-5.51-6.74L36.34,22.85a1.49,1.49,0,0,1-1.67,1.31h0a1.7,1.7,0,0,0-1.89,1.5L29.43,53.85A27.7,27.7,0,0,0,33.16,71.4ZM41.4,8.74a2.68,2.68,0,1,1,2.35,3A2.68,2.68,0,0,1,41.4,8.74ZM34,35.13a1.52,1.52,0,1,1-.83,2A1.51,1.51,0,0,1,34,35.13Z"/><path class="cls-1" d="M5.29,27.48a6.07,6.07,0,0,0,8.26-.71l0-.06a3.07,3.07,0,0,1,4.26-.36l11.35,9.51.9-7.59L28.69,27a1.72,1.72,0,0,0-2.41.22h0a1.5,1.5,0,0,1-2.11.2L12.91,18.06a6.06,6.06,0,1,0-7.62,9.42ZM7,21a2.68,2.68,0,1,1,.35,3.77A2.69,2.69,0,0,1,7,21Z"/><path class="cls-1" d="M40.45,36.48l-.9,7.6,20.59,17.3-.22-1a27.77,27.77,0,0,0-9.38-15.29Z"/><path class="cls-2" d="M23.77,49V26.92H17V24H33.29v3h-6.8V49Z"/><path class="cls-2" d="M50.61,40.23l2.73.84a11.59,11.59,0,0,1-3.17,6.3,7.86,7.86,0,0,1-5.51,2.08A8.39,8.39,0,0,1,39.79,48a9.86,9.86,0,0,1-3.32-4.47,18.71,18.71,0,0,1-1.29-7.27,17,17,0,0,1,1.29-7A9.89,9.89,0,0,1,40,25a8.73,8.73,0,0,1,4.93-1.46A7.56,7.56,0,0,1,50,25.36a10,10,0,0,1,3,5.43l-2.67.77Q49,26.35,44.85,26.35a6.06,6.06,0,0,0-3.56,1.05,7.09,7.09,0,0,0-2.4,3.28,15.14,15.14,0,0,0-.9,5.63Q38,41.46,39.8,44a5.62,5.62,0,0,0,4.82,2.57A5.3,5.3,0,0,0,48.45,45,8.54,8.54,0,0,0,50.61,40.23Z"/></svg>