<svg id="Layer_1" data-name="Layer 1" xmlns="http://www.w3.org/2000/svg" viewBox="0 0 213.01 79.49"><defs><style>.cls-1{fill:none;stroke:#ccc;stroke-linecap:round;stroke-linejoin:round;}.cls-2{fill:#f5f5f5;}</style></defs><title>logos</title><path class="cls-1" d="M32.28,72l.53.89,6.48-54.53a3.06,3.06,0,0,1,3.33-2.68h.07A6.05,6.05,0,1,0,37.18,8.9L35.46,23.41a1.49,1.49,0,0,1-1.67,1.31h0a1.7,1.7,0,0,0-1.89,1.5L28.55,54.41A27.7,27.7,0,0,0,32.28,72ZM40.52,9.3a2.68,2.68,0,1,1,2.35,3A2.68,2.68,0,0,1,40.52,9.3ZM33.13,35.69a1.52,1.52,0,1,1-.83,2A1.51,1.51,0,0,1,33.13,35.69Z"/><path class="cls-1" d="M4.41,28a6.07,6.07,0,0,0,8.26-.71l0-.06A3.07,3.07,0,0,1,17,26.9l11.35,9.51.9-7.59-1.42-1.29a1.72,1.72,0,0,0-2.41.22h0a1.5,1.5,0,0,1-2.11.2L12,18.62A6.06,6.06,0,1,0,4.41,28ZM6.1,21.57a2.68,2.68,0,1,1,.35,3.77A2.69,2.69,0,0,1,6.1,21.57Z"/><path class="cls-1" d="M39.57,37l-.9,7.6,20.59,17.3-.22-1a27.77,27.77,0,0,0-9.38-15.29Z"/><path class="cls-2" d="M22.88,49.57V27.48H16.12v-3H32.4v3H25.6v22.1Z"/><path class="cls-2" d="M49.73,40.79l2.73.84a11.59,11.59,0,0,1-3.17,6.3A7.86,7.86,0,0,1,43.79,50a8.39,8.39,0,0,1-4.88-1.39,9.86,9.86,0,0,1-3.32-4.47,18.71,18.71,0,0,1-1.29-7.27,17,17,0,0,1,1.29-7,9.89,9.89,0,0,1,3.5-4.33A8.73,8.73,0,0,1,44,24.07a7.56,7.56,0,0,1,5.11,1.85,10,10,0,0,1,3,5.43l-2.67.77Q48.09,26.91,44,26.91A6.06,6.06,0,0,0,40.41,28,7.09,7.09,0,0,0,38,31.24a15.14,15.14,0,0,0-.9,5.63q0,5.15,1.81,7.72a5.62,5.62,0,0,0,4.82,2.57,5.3,5.3,0,0,0,3.84-1.58A8.54,8.54,0,0,0,49.73,40.79Z"/><path class="cls-2" d="M72.49,47.28a21.62,21.62,0,0,1-7.9,1.81A7.56,7.56,0,0,1,58.92,47a7.91,7.91,0,0,1-2-5.78,14.21,14.21,0,0,1,3.86-10,12.3,12.3,0,0,1,9.34-4.14,21.52,21.52,0,0,1,6.07.82L75,31.8h-.89a5.48,5.48,0,0,0,.14-1.09,2.27,2.27,0,0,0-1.35-2,7,7,0,0,0-3.5-.76,7.25,7.25,0,0,0-5.68,2.89,15.32,15.32,0,0,0-2.63,4.75,15.88,15.88,0,0,0-1,5.37,6.87,6.87,0,0,0,1.61,4.82,5.68,5.68,0,0,0,4.41,1.76,16.38,16.38,0,0,0,6.68-1.59Z"/><path class="cls-2" d="M77.45,48.74l1-4.36,1.37-6.92a9.3,9.3,0,0,0,.21-1.81q0-1.22-.85-1.22-1.5,0-4.29,3.2l.25-1.26q3.27-3.52,5.68-3.52,2,0,2,2.33a11.64,11.64,0,0,1-.25,2.29L82,40.89h.18a20,20,0,0,1,4-5.79q2.3-2.25,4.21-2.25a3.51,3.51,0,0,1,1.77.44l-1.88,2.56a2.74,2.74,0,0,0-1.42-.55q-2.76,0-7.35,8.1l-1,5.16Z"/><path class="cls-2" d="M105,44.69l-.21,1.09q-4.5,3.14-7.67,3.14a4.16,4.16,0,0,1-3.26-1.41,5.27,5.27,0,0,1-1.25-3.64,11.26,11.26,0,0,1,3.06-7.51q3.06-3.52,6.53-3.52a2.64,2.64,0,0,1,2,.85,3.13,3.13,0,0,1,.78,2.21,5.63,5.63,0,0,1-2.78,4.67,11.22,11.22,0,0,1-6.63,2v.64q0,4.14,3,4.13Q101.26,47.3,105,44.69Zm-9.37-3a9.16,9.16,0,0,0,5-1.64,4.32,4.32,0,0,0,1.78-3.58q0-2.17-1.57-2.17t-3.29,2.26A10.67,10.67,0,0,0,95.65,41.66Z"/><path class="cls-2" d="M119.41,40.88h-.26a19.21,19.21,0,0,1-3.85,5.8q-2.25,2.24-4.22,2.24-3,0-3-3.74a12.56,12.56,0,0,1,3.29-8.07,10.41,10.41,0,0,1,8.3-4.09q2,0,4.23.17l-1,4.19-1.37,7a14.58,14.58,0,0,0-.33,2.12q0,.89.84.89,1.42,0,4.22-3.12L126,45.6q-3.11,3.33-5.58,3.33-2.06,0-2.06-2.14a14.2,14.2,0,0,1,.34-2.41Zm1.14-5.66a8.63,8.63,0,0,0-3.52-.79q-2.58,0-4.12,3.26a16.54,16.54,0,0,0-1.81,6.92q0,2.22,1.3,2.22t3.5-2.56a28.83,28.83,0,0,0,4-5.84Z"/><path class="cls-2" d="M131.31,34.24h-3.24l1-1h2.46l.81-4,2.93-.71-.93,4.72h5.34l-1.16,1.25a30.52,30.52,0,0,0-3.24-.2H134.1l-1.93,9.7a12.75,12.75,0,0,0-.3,2.11q0,1.12,1,1.12,1.53,0,4.18-2.27l-.25,1.3q-2.75,2.72-5.28,2.72t-2.41-2.66a13.66,13.66,0,0,1,.31-2.52Z"/><path class="cls-2" d="M150.62,44.28l-.25,1.32q-3.1,3.33-5.56,3.33-2,0-2-2.14a14.12,14.12,0,0,1,.33-2.38l1-4.93a19,19,0,0,0,.4-2.79q0-1.19-.92-1.19a9.79,9.79,0,0,0-2.28.48l.17-.86,6.92-2.27-1.08,4.53-1.39,7a14.81,14.81,0,0,0-.33,2.1q0,.92.84.92Q147.81,47.4,150.62,44.28Zm-5.2-13.89.95-1.93,4-2.61-1.22,2.61Z"/><path class="cls-2" d="M156.18,48.93a3.9,3.9,0,0,1-3.09-1.45,5.38,5.38,0,0,1-1.24-3.62,11.12,11.12,0,0,1,3.09-7.54q3.09-3.46,6.73-3.46a4.17,4.17,0,0,1,3.24,1.42,5.19,5.19,0,0,1,1.27,3.61,11.09,11.09,0,0,1-3.09,7.64A9.18,9.18,0,0,1,156.18,48.93Zm1.61-1.23q2.1,0,3.69-2.7a12.1,12.1,0,0,0,1.59-6.27q0-4.69-2.86-4.69-2,0-3.65,2.78a12.22,12.22,0,0,0-1.62,6.27Q154.94,47.69,157.79,47.69Z"/><path class="cls-2" d="M169.7,48.74l1-4.36,1.39-7a14.24,14.24,0,0,0,.33-2.12q0-.88-.84-.88-1.39,0-4.22,3.11l.25-1.3q3.09-3.34,5.56-3.34,2,0,2,2.12a14.6,14.6,0,0,1-.33,2.41l-.69,3.5h.21a21.14,21.14,0,0,1,4-5.83q2.23-2.2,4.16-2.2,2.32,0,2.32,2.58a10.68,10.68,0,0,1-.24,2l-1.37,6.91a14.58,14.58,0,0,0-.33,2.12q0,.89.84.89,1.42,0,4.23-3.11l-.27,1.32q-3.09,3.33-5.56,3.33-2,0-2-2.14a14.26,14.26,0,0,1,.34-2.4l1.37-6.93a6.79,6.79,0,0,0,.17-1.36q0-1.15-.85-1.15-2.7,0-7.5,8.57l-1,5.05Z"/><path class="cls-2" d="M187.48,48.09l1.87-1.91a6.28,6.28,0,0,0,3.74,1.34,3.16,3.16,0,0,0,2-.62,1.85,1.85,0,0,0,.81-1.52q0-1-1.6-2.75L193,41.22q-1.88-2.07-1.88-3.46a4.35,4.35,0,0,1,1.83-3.42,6.41,6.41,0,0,1,4.18-1.49,9.17,9.17,0,0,1,2.89.54l-.62,3.13h-.91l0-.24a1.37,1.37,0,0,0,0-.3q0-1.91-2.46-1.91-2.75,0-2.75,2.21a5.24,5.24,0,0,0,1.64,3l1.16,1.29q1.9,2.14,1.9,3.51a4.21,4.21,0,0,1-2,3.38,7.5,7.5,0,0,1-4.57,1.49A11.12,11.12,0,0,1,187.48,48.09Z"/></svg>